<?xml version="1.0" encoding="utf-8"?>
<!-- Generator: Adobe Illustrator 16.0.0, SVG Export Plug-In . SVG Version: 6.00 Build 0)  -->
<!DOCTYPE svg PUBLIC "-//W3C//DTD SVG 1.1//EN" "http://www.w3.org/Graphics/SVG/1.1/DTD/svg11.dtd">
<svg version="1.1" id="Layer_1" xmlns="http://www.w3.org/2000/svg" xmlns:xlink="http://www.w3.org/1999/xlink" x="0px" y="0px"
	 width="273.57px" height="22.88px" viewBox="0 0 273.57 22.88" enable-background="new 0 0 273.57 22.88" xml:space="preserve">
<g>
	<g>
		<path fill="#2AAA6C" d="M6.461,0.001c1.538,0,3.039,0.291,4.44,0.883c1.374,0.582,2.575,1.4,3.622,2.447
			c1.079,1.074,1.893,2.284,2.448,3.649c0.619,1.41,0.915,2.911,0.915,4.44c0,1.565-0.295,3.067-0.915,4.467
			c-0.555,1.375-1.369,2.586-2.448,3.623c-1.046,1.045-2.248,1.893-3.622,2.447c-1.401,0.619-2.903,0.92-4.44,0.92H1.865v-0.037H0
			V0.001H6.461z M6.461,18.311c3.785,0,6.856-3.104,6.856-6.889c0-3.785-3.071-6.853-6.856-6.853H4.568v13.742H6.461z"/>
	</g>
	<g>
		<path fill="#2AAA6C" d="M53.465,4.569H42.796v4.214h8.809v4.567h-8.809v4.961H53.37v4.568H38.228V0.001h15.237V4.569z"/>
	</g>
	<g>
		<path fill="#2AAA6C" d="M89.568,18.637h-9.463l-2.157,4.242h-5.123L84.477,0.001h1.338l10.801,22.877h-5.06L89.568,18.637z
			 M87.412,14.07l-2.38-5.097l-2.58,5.097H87.412z"/>
	</g>
	<g>
		<path fill="#2AAA6C" d="M121.782,0.001c1.538,0,3.039,0.291,4.44,0.883c1.374,0.582,2.575,1.4,3.622,2.447
			c1.079,1.074,1.893,2.284,2.448,3.649c0.619,1.41,0.914,2.911,0.914,4.44c0,1.565-0.295,3.067-0.914,4.467
			c-0.555,1.375-1.37,2.586-2.448,3.623c-1.046,1.045-2.248,1.893-3.622,2.447c-1.401,0.619-2.903,0.92-4.44,0.92h-4.596v-0.037
			h-1.865V0.001H121.782z M121.782,18.311c3.785,0,6.856-3.104,6.856-6.889c0-3.785-3.071-6.853-6.856-6.853h-1.893v13.742H121.782z
			"/>
	</g>
	<g>
		<path fill="#2AAA6C" d="M158.768,18.311h8.517v4.531h-13.085V0.001h4.568V18.311z"/>
	</g>
	<g>
		<path fill="#2AAA6C" d="M195.294,4.569v13.742h2.416v4.568h-9.432v-4.568h2.447V4.569h-2.447V0.001h9.432v4.567H195.294z"/>
	</g>
	<g>
		<path fill="#2AAA6C" d="M236.134,22.879l-12.858-13.35v13.35h-4.567V0.001h1.438l12.625,12.793V0.001h4.568v22.877H236.134z"/>
	</g>
	<g>
		<path fill="#2AAA6C" d="M273.569,4.569H262.9v4.214h8.813v4.567H262.9v4.961h10.573v4.568h-15.142V0.001h15.237V4.569z"/>
	</g>
</g>
</svg>
